<svg width="58" height="60" viewBox="0 0 58 60" fill="none" xmlns="http://www.w3.org/2000/svg">
<g clip-path="url(#clip0)">
<path d="M51.9533 29.9902L57.1626 24.7162C58.7154 23.1954 57.9913 20.4928 55.9545 19.9889L48.8575 18.1151L50.8581 10.8477C51.4235 8.75734 49.5181 6.78566 47.4981 7.37066L40.4753 9.44101L38.6646 2.09675C38.1855 0.0226498 35.5438 -0.735905 34.0966 0.846595L29.0001 6.2773L23.9036 0.846712C22.4729 -0.717858 19.8202 -0.00102226 19.3356 2.09687L17.5249 9.44113L10.502 7.37077C8.48143 6.78554 6.57671 8.75792 7.14199 10.8478L9.14265 18.1152L2.04558 19.9891C0.00787358 20.4931 -0.714747 23.1961 0.837433 24.7162L6.04667 29.9902L0.837433 35.2641C-0.715427 36.7848 0.00866676 39.4874 2.04546 39.9913L9.14254 41.8652L7.14187 49.1325C6.57649 51.2229 8.48188 53.1946 10.5019 52.6096L17.5247 50.5393L19.3354 57.8835C19.8382 60.0603 22.4728 60.6981 23.9034 59.1337L29.0001 53.7429L34.0965 59.1337C35.5125 60.7143 38.1731 60.0109 38.6645 57.8835L40.4752 50.5393L47.498 52.6096C49.5185 53.1948 51.4233 51.2225 50.858 49.1325L48.8574 41.8652L55.9544 39.9913C57.992 39.4872 58.7146 36.7843 57.1625 35.2641L51.9533 29.9902Z" fill="#969696"/>
</g>
<defs>
<clipPath id="clip0">
<rect width="58" height="60" fill="white"/>
</clipPath>
</defs>
</svg>
