<svg xmlns="http://www.w3.org/2000/svg" x="0px" y="0px" width="100" height="100" viewBox="0 0 48 48">
<path d="M 24 4 C 12.972066 4 4 12.972074 4 24 C 4 35.027926 12.972066 44 24 44 C 35.027934 44 44 35.027926 44 24 C 44 12.972074 35.027934 4 24 4 z M 21.722656 15.701172 C 26.860234 15.760908 31.944063 17.020781 36.585938 19.441406 C 37.320937 19.823406 37.605656 20.730844 37.222656 21.464844 C 36.954656 21.978844 36.432625 22.271437 35.890625 22.273438 C 35.656625 22.273437 35.419266 22.218516 35.197266 22.103516 C 28.444266 18.580516 20.668875 17.757969 13.296875 19.792969 C 12.501875 20.008969 11.672172 19.542141 11.451172 18.744141 C 11.231172 17.945141 11.699047 17.119438 12.498047 16.898438 C 15.537422 16.061438 18.640109 15.66533 21.722656 15.701172 z M 21.789062 22.037109 C 25.989697 22.10748 30.146484 23.131875 33.943359 25.078125 C 34.680359 25.456125 34.97175 26.360656 34.59375 27.097656 C 34.32775 27.615656 33.803766 27.913109 33.259766 27.912109 C 33.028766 27.912109 32.795172 27.860047 32.576172 27.748047 C 27.159172 24.972047 20.919766 24.298562 15.009766 25.851562 C 14.206766 26.060562 13.387734 25.58325 13.177734 24.78125 C 12.967734 23.98025 13.446047 23.160219 14.248047 22.949219 C 16.732797 22.296719 19.268682 21.994887 21.789062 22.037109 z M 21.880859 28.376953 C 25.089717 28.458916 28.264922 29.226094 31.169922 30.652344 C 31.913922 31.017344 32.220469 31.916156 31.855469 32.660156 C 31.595469 33.191156 31.062812 33.499047 30.507812 33.498047 C 30.285812 33.498047 30.060656 33.449703 29.847656 33.345703 C 25.823656 31.370703 21.194453 30.857531 16.814453 31.894531 C 16.000453 32.089531 15.197812 31.58625 15.007812 30.78125 C 14.815812 29.97425 15.313141 29.166563 16.119141 28.976562 C 18.017016 28.526187 19.955545 28.327775 21.880859 28.376953 z"></path>
</svg>