<svg width="58" height="60" viewBox="0 0 58 60" fill="none" xmlns="http://www.w3.org/2000/svg">
<g clip-path="url(#clip0)">
<path d="M17.3998 45H34.7998C39.6029 45 43.4998 39.9609 43.4998 33.75H46.3998C52.7979 33.75 57.9998 27.0234 57.9998 18.75C57.9998 10.4766 52.7979 3.75 46.3998 3.75H10.8748C9.66951 3.75 8.69982 5.00391 8.69982 6.5625V33.75C8.69982 39.9609 12.5967 45 17.3998 45ZM46.3998 11.25C49.5989 11.25 52.1998 14.6133 52.1998 18.75C52.1998 22.8867 49.5989 26.25 46.3998 26.25H43.4998V11.25H46.3998ZM50.7226 56.25H4.37701C0.0632559 56.25 -1.15112 48.75 1.11451 48.75H53.9761C56.2417 48.75 55.0454 56.25 50.7226 56.25Z" fill="#969696"/>
</g>
<defs>
<clipPath id="clip0">
<rect width="58" height="60" fill="white"/>
</clipPath>
</defs>
</svg>
