<svg width="58" height="60" viewBox="0 0 58 60" fill="none" xmlns="http://www.w3.org/2000/svg">
<g clip-path="url(#clip0)">
<path d="M57.2062 2.23828C57.1334 1.8876 56.9642 1.56612 56.719 1.3125C56.4739 1.05887 56.1631 0.883893 55.8241 0.808594C52.1765 0 49.3229 0 46.4795 0C34.7889 0 27.7768 6.46875 22.5444 15H10.7404C9.73236 15.0009 8.74436 15.2917 7.88678 15.8398C7.02921 16.388 6.33583 17.172 5.88408 18.1043L0.285719 29.6824C0.0789717 30.1113 -0.0183934 30.5878 0.00286362 31.0665C0.0241207 31.5453 0.163295 32.0105 0.407177 32.418C0.65106 32.8255 0.991559 33.1618 1.39636 33.3949C1.80116 33.628 2.25683 33.7502 2.72013 33.75H14.4753L11.9299 36.3832C11.2502 37.0864 10.8684 38.0401 10.8684 39.0346C10.8684 40.029 11.2502 40.9827 11.9299 41.6859L17.6959 47.652C18.0325 48.0003 18.4322 48.2766 18.872 48.4651C19.3119 48.6536 19.7834 48.7506 20.2595 48.7506C20.7356 48.7506 21.207 48.6536 21.6469 48.4651C22.0867 48.2766 22.4864 48.0003 22.823 47.652L25.3685 45.0187V57.1875C25.3683 57.6666 25.4865 58.1378 25.7118 58.5564C25.9371 58.975 26.262 59.3272 26.6557 59.5794C27.0495 59.8317 27.499 59.9757 27.9617 59.9978C28.4243 60.02 28.8847 59.9195 29.2993 59.7059L40.4802 53.918C41.3828 53.4515 42.1419 52.734 42.6722 51.8459C43.2025 50.9578 43.483 49.9344 43.4821 48.8906V36.6551C51.7052 31.2293 57.9821 23.952 57.9821 11.918C57.9935 8.96484 57.9935 6.01172 57.2062 2.23828ZM43.4935 19.6875C42.5973 19.6875 41.7212 19.4126 40.976 18.8975C40.2309 18.3824 39.6501 17.6504 39.3071 16.7938C38.9642 15.9373 38.8744 14.9948 39.0493 14.0855C39.2241 13.1762 39.6557 12.341 40.2894 11.6854C40.9231 11.0299 41.7305 10.5834 42.6095 10.4026C43.4884 10.2217 44.3995 10.3145 45.2275 10.6693C46.0555 11.0241 46.7631 11.6249 47.2611 12.3958C47.759 13.1666 48.0247 14.0729 48.0247 15C48.0247 16.2432 47.5473 17.4355 46.6975 18.3146C45.8478 19.1936 44.6952 19.6875 43.4935 19.6875Z" fill="#969696"/>
</g>
<defs>
<clipPath id="clip0">
<rect width="58" height="60" fill="white"/>
</clipPath>
</defs>
</svg>
