<svg width="58" height="60" viewBox="0 0 58 60" fill="none" xmlns="http://www.w3.org/2000/svg">
<path d="M55.39 44.6101L29.9502 56.0734C29.6502 56.1899 29.3271 56.25 29.0006 56.25C28.6741 56.25 28.351 56.1899 28.051 56.0734L2.60998 44.6101C2.09213 44.3757 2.09213 43.9913 2.60998 43.7558L8.70257 41.0159C9.00307 40.8994 9.32657 40.8393 9.65349 40.8393C9.9804 40.8393 10.3039 40.8994 10.6044 41.0159L28.051 48.8675C28.3509 48.9847 28.674 49.0451 29.0006 49.0451C29.3272 49.0451 29.6504 48.9847 29.9502 48.8675L47.3969 41.0159C47.6971 40.8994 48.0204 40.8392 48.3471 40.8392C48.6738 40.8392 48.9971 40.8994 49.2974 41.0159L55.39 43.7616C55.9143 43.9913 55.9143 44.3757 55.39 44.6101ZM55.39 28.6105L49.2974 25.8648C48.9971 25.7482 48.6738 25.6881 48.3471 25.6881C48.0204 25.6881 47.6971 25.7482 47.3969 25.8648L29.9502 33.7257C29.6501 33.8417 29.327 33.9015 29.0006 33.9015C28.6742 33.9015 28.3512 33.8417 28.051 33.7257L10.6044 25.8648C10.3039 25.7482 9.9804 25.6881 9.65349 25.6881C9.32657 25.6881 9.00307 25.7482 8.70257 25.8648L2.60998 28.6105C2.09213 28.8448 2.09213 29.2304 2.60998 29.4671L28.051 40.928C28.351 41.0446 28.6741 41.1047 29.0006 41.1047C29.3271 41.1047 29.6502 41.0446 29.9502 40.928L55.39 29.4671C55.9143 29.2304 55.9143 28.846 55.39 28.6105ZM2.60998 15.2839L28.0497 25.8648C28.6601 26.0816 29.3385 26.0816 29.949 25.8648L55.39 15.2839C55.9078 15.0659 55.9078 14.7109 55.39 14.4941L29.949 3.91437C29.339 3.69521 28.6596 3.69521 28.0497 3.91437L2.60998 14.4941C2.08565 14.7109 2.08565 15.0659 2.60998 15.2839Z" fill="#969696"/>
</svg>
