<svg width="58" height="60" viewBox="0 0 58 60" fill="none" xmlns="http://www.w3.org/2000/svg">
<path d="M11.7812 26.25H2.71875C1.21721 26.25 0 27.5092 0 29.0625V57.1875C0 58.7408 1.21721 60 2.71875 60H11.7812C13.2828 60 14.5 58.7408 14.5 57.1875V29.0625C14.5 27.5092 13.2828 26.25 11.7812 26.25ZM7.25 55.3125C5.74846 55.3125 4.53125 54.0533 4.53125 52.5C4.53125 50.9467 5.74846 49.6875 7.25 49.6875C8.75154 49.6875 9.96875 50.9467 9.96875 52.5C9.96875 54.0533 8.75154 55.3125 7.25 55.3125ZM43.5 9.54516C43.5 14.5158 40.5581 17.3039 39.7303 20.625H51.2536C55.0369 20.625 57.9822 23.8765 57.9999 27.4334C58.0094 29.5355 57.1451 31.7985 55.7978 33.1986L55.7854 33.2115C56.8996 35.9463 56.7184 39.7784 54.7309 42.5243C55.7143 45.5589 54.7231 49.2865 52.8752 51.2849C53.362 53.3472 53.1294 55.1023 52.1787 56.5152C49.8666 59.9516 44.1362 60 39.2904 60L38.9681 59.9999C33.4981 59.9979 29.0213 57.9376 25.4242 56.2821C23.6165 55.4502 21.253 54.4204 19.4598 54.3862C18.7189 54.3722 18.125 53.7468 18.125 52.9802V27.9291C18.125 27.5541 18.2702 27.1942 18.5281 26.9305C23.0156 22.3433 24.9452 17.4867 28.6233 13.6753C30.3004 11.9372 30.9103 9.31172 31.4999 6.77273C32.0037 4.60465 33.0574 0 35.3437 0C38.0625 0 43.5 0.9375 43.5 9.54516Z" fill="#969696"/>
</svg>
