<svg width="49" height="44" viewBox="0 0 49 44" fill="none" xmlns="http://www.w3.org/2000/svg">
<path d="M47.6477 13.1658L26.2914 5.801C25.1276 5.39967 23.872 5.39967 22.709 5.801L1.35189 13.1658C-0.450387 13.7872 -0.450387 16.4624 1.35189 17.0837L5.07513 18.3676C4.25821 19.5012 3.75596 20.8839 3.70619 22.3981C2.96889 22.8725 2.4498 23.7284 2.4498 24.7502C2.4498 25.6766 2.88468 26.4561 3.51096 26.9545L1.55632 36.827C1.38635 37.6855 1.96822 38.5002 2.75146 38.5002H7.04738C7.83138 38.5002 8.41326 37.6855 8.24329 36.827L6.28865 26.9545C6.91493 26.4561 7.3498 25.6766 7.3498 24.7502C7.3498 23.7559 6.85444 22.924 6.15083 22.4411C6.20902 21.1503 6.79702 20.009 7.73491 19.2855L22.7082 24.4494C23.4019 24.6883 24.7326 24.9865 26.2906 24.4494L47.6477 17.0846C49.4508 16.4624 49.4508 13.788 47.6477 13.1658ZM27.0103 27.0783C24.826 27.8311 22.9647 27.4151 21.9886 27.0783L10.8855 23.2497L9.7998 33.0002C9.7998 36.0381 16.3811 38.5002 24.4998 38.5002C32.6185 38.5002 39.1998 36.0381 39.1998 33.0002L38.1142 23.2489L27.0103 27.0783Z" fill="white"/>
</svg>
