<svg width="22" height="24" viewBox="0 0 22 24" fill="none" xmlns="http://www.w3.org/2000/svg">
<g clip-path="url(#clip0)">
<path d="M11.0049 6.60916C7.8817 6.60916 5.36251 9.01384 5.36251 11.9951C5.36251 14.9763 7.8817 17.381 11.0049 17.381C14.1281 17.381 16.6473 14.9763 16.6473 11.9951C16.6473 9.01384 14.1281 6.60916 11.0049 6.60916ZM11.0049 15.4967C8.98661 15.4967 7.33661 13.9263 7.33661 11.9951C7.33661 10.0638 8.9817 8.49353 11.0049 8.49353C13.0281 8.49353 14.6732 10.0638 14.6732 11.9951C14.6732 13.9263 13.0232 15.4967 11.0049 15.4967ZM18.1942 6.38884C18.1942 7.08728 17.6049 7.64509 16.8781 7.64509C16.1464 7.64509 15.562 7.08259 15.562 6.38884C15.562 5.69509 16.1513 5.13259 16.8781 5.13259C17.6049 5.13259 18.1942 5.69509 18.1942 6.38884ZM21.9312 7.66384C21.8478 5.98103 21.4451 4.49041 20.1536 3.26228C18.867 2.03416 17.3053 1.64978 15.5424 1.56541C13.7254 1.46697 8.27947 1.46697 6.4625 1.56541C4.70447 1.64509 3.14287 2.02947 1.85135 3.25759C0.559834 4.48572 0.162067 5.97634 0.0736739 7.65915C-0.029451 9.39353 -0.029451 14.592 0.0736739 16.3263C0.157156 18.0092 0.559834 19.4998 1.85135 20.7279C3.14287 21.956 4.69956 22.3404 6.4625 22.4248C8.27947 22.5232 13.7254 22.5232 15.5424 22.4248C17.3053 22.3451 18.867 21.9607 20.1536 20.7279C21.4402 19.4998 21.8428 18.0092 21.9312 16.3263C22.0344 14.592 22.0344 9.39822 21.9312 7.66384ZM19.5839 18.1873C19.2009 19.106 18.4594 19.8138 17.492 20.1842C16.0433 20.7326 12.6058 20.606 11.0049 20.606C9.40402 20.606 5.96161 20.7279 4.51786 20.1842C3.55537 19.8185 2.81385 19.1107 2.4259 18.1873C1.85135 16.8045 1.98394 13.5232 1.98394 11.9951C1.98394 10.467 1.85626 7.18103 2.4259 5.80291C2.80894 4.88416 3.55045 4.17634 4.51786 3.80603C5.96652 3.25759 9.40402 3.38416 11.0049 3.38416C12.6058 3.38416 16.0482 3.26228 17.492 3.80603C18.4545 4.17166 19.196 4.87947 19.5839 5.80291C20.1585 7.18572 20.0259 10.467 20.0259 11.9951C20.0259 13.5232 20.1585 16.8092 19.5839 18.1873Z" fill="black"/>
</g>
<defs>
<clipPath id="clip0">
<rect width="22" height="24" fill="white"/>
</clipPath>
</defs>
</svg>
