<svg width="22" height="24" viewBox="0 0 22 24" fill="none" xmlns="http://www.w3.org/2000/svg">
<path d="M19.7386 7.11163C19.7525 7.32482 19.7525 7.53805 19.7525 7.75124C19.7525 14.2537 15.2157 21.7461 6.92386 21.7461C4.36928 21.7461 1.9962 20.939 0 19.538C0.362957 19.5837 0.711906 19.5989 1.08883 19.5989C3.19666 19.5989 5.13704 18.8223 6.68654 17.4974C4.7043 17.4517 3.04313 16.0355 2.47079 14.0863C2.75 14.1319 3.02917 14.1624 3.32234 14.1624C3.72715 14.1624 4.132 14.1014 4.50888 13.9949C2.4429 13.538 0.893363 11.5583 0.893363 9.16747V9.10658C1.49359 9.47206 2.19162 9.70049 2.93141 9.73091C1.71695 8.84764 0.921293 7.34005 0.921293 5.63446C0.921293 4.72077 1.1446 3.88321 1.53549 3.15224C3.75504 6.137 7.09135 8.08621 10.8324 8.29944C10.7626 7.93396 10.7207 7.55328 10.7207 7.17257C10.7207 4.46188 12.7309 2.25378 15.2296 2.25378C16.5278 2.25378 17.7004 2.84769 18.524 3.80708C19.543 3.59389 20.5202 3.18271 21.3857 2.61927C21.0506 3.76142 20.3387 4.72082 19.4035 5.32991C20.3109 5.22336 21.1903 4.94919 21.9999 4.56852C21.3858 5.5431 20.618 6.41108 19.7386 7.11163Z" fill="black"/>
</svg>
