<svg width="70" height="68" viewBox="0 0 70 68" fill="none" xmlns="http://www.w3.org/2000/svg">
<g clip-path="url(#clip0)">
<path d="M62.7023 33.9889L68.9893 28.0117C70.8634 26.2882 69.9895 23.2253 67.5313 22.6542L58.9659 20.5305L61.3805 12.2942C62.0629 9.92505 59.7632 7.69048 57.3253 8.35348L48.8495 10.6999L46.6642 2.37638C46.0859 0.0257349 42.8976 -0.833961 41.151 0.959539L35.0001 7.11434L28.8492 0.959672C27.1225 -0.813507 23.9209 -0.00109346 23.336 2.37652L21.1507 10.7L12.6748 8.35361C10.2362 7.69034 7.9374 9.92571 8.61963 12.2943L11.0342 20.5307L2.46879 22.6543C0.00948997 23.2256 -0.862639 26.289 1.01068 28.0117L7.29769 33.9889L1.01068 39.966C-0.863459 41.6896 0.0104473 44.7525 2.46865 45.3236L11.0341 47.4472L8.61949 55.6836C7.93713 58.0527 10.2367 60.2873 12.6747 59.6243L21.1504 57.2779L23.3358 65.6014C23.9427 68.0684 27.1223 68.7913 28.8489 67.0182L35.0001 60.9087L41.1509 67.0182C42.8599 68.8096 46.071 68.0125 46.6641 65.6014L48.8494 57.2779L57.3251 59.6243C59.7636 60.2875 62.0626 58.0522 61.3804 55.6836L58.9658 47.4472L67.5312 45.3236C69.9903 44.7522 70.8625 41.6889 68.9892 39.966L62.7023 33.9889Z" fill="#969696"/>
</g>
<defs>
<clipPath id="clip0">
<rect width="70" height="68" fill="white"/>
</clipPath>
</defs>
</svg>
