<svg width="70" height="68" viewBox="0 0 70 68" fill="none" xmlns="http://www.w3.org/2000/svg">
<path d="M66.85 50.5581L36.1468 63.5498C35.7847 63.6819 35.3948 63.75 35.0007 63.75C34.6067 63.75 34.2168 63.6819 33.8546 63.5498L3.14996 50.5581C2.52496 50.2925 2.52496 49.8568 3.14996 49.5899L10.5031 46.4847C10.8658 46.3527 11.2562 46.2845 11.6507 46.2845C12.0453 46.2845 12.4357 46.3527 12.7984 46.4847L33.8546 55.3832C34.2166 55.5159 34.6066 55.5844 35.0007 55.5844C35.3949 55.5844 35.7849 55.5159 36.1468 55.3832L57.2031 46.4847C57.5655 46.3526 57.9557 46.2845 58.35 46.2845C58.7443 46.2845 59.1345 46.3526 59.4968 46.4847L66.85 49.5965C67.4828 49.8568 67.4828 50.2925 66.85 50.5581ZM66.85 32.4252L59.4968 29.3134C59.1345 29.1813 58.7443 29.1132 58.35 29.1132C57.9557 29.1132 57.5655 29.1813 57.2031 29.3134L36.1468 38.2225C35.7845 38.354 35.3947 38.4217 35.0007 38.4217C34.6068 38.4217 34.2169 38.354 33.8546 38.2225L12.7984 29.3134C12.4357 29.1813 12.0453 29.1132 11.6507 29.1132C11.2562 29.1132 10.8658 29.1813 10.5031 29.3134L3.14996 32.4252C2.52496 32.6908 2.52496 33.1278 3.14996 33.3961L33.8546 46.3851C34.2168 46.5172 34.6067 46.5853 35.0007 46.5853C35.3948 46.5853 35.7847 46.5172 36.1468 46.3851L66.85 33.3961C67.4828 33.1278 67.4828 32.6922 66.85 32.4252ZM3.14996 17.3218L33.8531 29.3134C34.5898 29.5591 35.4086 29.5591 36.1453 29.3134L66.85 17.3218C67.475 17.0747 67.475 16.6723 66.85 16.4266L36.1453 4.43629C35.4092 4.1879 34.5892 4.1879 33.8531 4.43629L3.14996 16.4266C2.51715 16.6723 2.51715 17.0747 3.14996 17.3218Z" fill="#969696"/>
</svg>
