<svg width="70" height="68" viewBox="0 0 70 68" fill="none" xmlns="http://www.w3.org/2000/svg">
<g clip-path="url(#clip0)">
<path d="M42.9998 15.2681L16.4423 40.8677C16.2454 41.0616 15.9939 41.152 15.7776 41.3127V65.875C15.7776 67.0491 16.6477 68 17.722 68H35.8576L31.3331 58.3299L43.9854 49.8299L36.6743 33.996L54.6665 52.1621L42.0142 60.6621L46.8656 68H68.2776C69.3519 68 70.222 67.0491 70.222 65.875V41.318C70.0154 41.1639 69.7699 41.0763 69.5828 40.893L42.9998 15.2681ZM77.3545 31.3809L70.222 24.4973V6.375C70.222 5.20094 69.3519 4.25 68.2776 4.25H60.4998C59.4255 4.25 58.5553 5.20094 58.5553 6.375V13.2401L46.2507 1.3693C45.3234 0.458206 44.1616 0.00133103 42.9998 2.90406e-06C41.838 -0.00132522 40.6786 0.452894 39.755 1.36399L8.6451 31.3809C7.84666 32.1659 7.77982 33.5086 8.49805 34.3825L11.0987 37.5461C11.8158 38.4187 13.0456 38.4917 13.8453 37.7068L41.714 10.8415C42.4493 10.1336 43.5515 10.1336 44.2868 10.8415L72.1555 37.7055C72.9539 38.4891 74.1838 38.4173 74.902 37.5448L77.5027 34.3812C78.2197 33.5086 78.1541 32.1645 77.3545 31.3809Z" fill="#969696"/>
</g>
<defs>
<clipPath id="clip0">
<rect width="70" height="68" fill="white"/>
</clipPath>
</defs>
</svg>
