<svg width="22" height="24" viewBox="0 0 22 24" fill="none" xmlns="http://www.w3.org/2000/svg">
<path d="M20.9938 5.81639C20.7539 4.7078 20.0471 3.8347 19.1496 3.53841C17.5229 3 11 3 11 3C11 3 4.47717 3 2.85043 3.53841C1.95297 3.83475 1.24615 4.7078 1.00625 5.81639C0.570374 7.82578 0.570374 12.0182 0.570374 12.0182C0.570374 12.0182 0.570374 16.2106 1.00625 18.22C1.24615 19.3286 1.95297 20.1653 2.85043 20.4616C4.47717 21 11 21 11 21C11 21 17.5229 21 19.1496 20.4616C20.0471 20.1653 20.7539 19.3286 20.9938 18.22C21.4297 16.2106 21.4297 12.0182 21.4297 12.0182C21.4297 12.0182 21.4297 7.82578 20.9938 5.81639ZM8.86666 15.8246V8.2118L14.3185 12.0183L8.86666 15.8246Z" fill="black"/>
</svg>
