<?xml version="1.0" encoding="UTF-8" standalone="no"?>
<svg width="40px" height="40px" viewBox="0 0 40 40" version="1.1" xmlns="http://www.w3.org/2000/svg" xmlns:xlink="http://www.w3.org/1999/xlink" xmlns:sketch="http://www.bohemiancoding.com/sketch/ns">
    <!-- Generator: Sketch 3.3.2 (12043) - http://www.bohemiancoding.com/sketch -->
    <title>Artboard 7</title>
    <desc>Created with Sketch.</desc>
    <defs></defs>
    <g id="Page-1" stroke="none" stroke-width="1" fill="none" fill-rule="evenodd" sketch:type="MSPage">
        <g id="Artboard-7" sketch:type="MSArtboardGroup" fill="#909597">
            <g id="baby-icon-copy" sketch:type="MSLayerGroup" transform="translate(0.000000, 1.000000)">
                <path d="M28.8232836,22.483822 C28.3725373,22.3110024 27.8638806,22.534476 27.6889552,22.9855946 C26.4764179,26.1213753 23.3964179,28.2291777 20.0262687,28.2291777 C16.7844776,28.2291777 13.838209,26.318032 12.520597,23.3604342 C12.3235821,22.9194464 11.8053731,22.71981 11.3623881,22.9164668 C10.92,23.1131235 10.721194,23.6303902 10.9170149,24.0725699 C12.5176119,27.661257 16.0925373,29.9800185 20.0262687,29.9800185 C24.1158209,29.9800185 27.8531343,27.4222893 29.3247761,23.615492 C29.4997015,23.1649693 29.2746269,22.6584293 28.8232836,22.483822 L28.8232836,22.483822 Z" id="Shape" sketch:type="MSShapeGroup"></path>
                <ellipse id="Oval" sketch:type="MSShapeGroup" cx="14.441194" cy="16.9297596" rx="1.73731343" ry="1.73415468"></ellipse>
                <ellipse id="Oval" sketch:type="MSShapeGroup" cx="25.6119403" cy="16.9297596" rx="1.73731343" ry="1.73415468"></ellipse>
                <path d="M36.2620896,16.0746008 C35.9277612,16.0746008 35.6,16.1294263 35.2865672,16.233714 C33.5797015,9.40793813 27.3868657,4.3353867 20.0268657,4.3353867 C19.6555224,4.3353867 19.2883582,4.35266866 18.9229851,4.37829362 C18.2179104,3.50406513 18.5038806,2.63341221 18.8113433,2.23354355 C18.8543284,2.17871805 19.2364179,1.70316635 19.5880597,1.90697422 C20.0065672,2.14892157 20.5432836,2.00530258 20.7868657,1.58636418 C21.0292537,1.16802171 20.8853731,0.63228114 20.4656716,0.390333786 C19.4668657,-0.187121845 18.2137313,0.133488195 17.4202985,1.16682985 C16.7546269,2.0321194 16.4585075,3.35448684 17.0274627,4.62441248 C11.0423881,5.78289932 6.25791045,10.3369921 4.77731343,16.1919989 C4.50507463,16.115124 4.2238806,16.073409 3.93671642,16.073409 C1.99283582,16.073409 0.583283582,17.6240174 0.583283582,19.7598285 C0.583283582,21.8950437 1.99343284,23.4456521 3.93671642,23.4456521 C4.18149254,23.4456521 4.42268657,23.4152597 4.65731343,23.3592423 C6.18985075,30.42339 12.4973134,35.7331213 20.0262687,35.7331213 C27.5689552,35.7331213 33.8859701,30.4049161 35.4047761,23.3222947 C35.681791,23.4021493 35.9689552,23.4456521 36.2614925,23.4456521 C38.2053731,23.4456521 39.6155224,21.8950437 39.6155224,19.7604244 C39.6155224,17.6252092 38.2053731,16.0746008 36.2620896,16.0746008 L36.2620896,16.0746008 Z M3.93671642,21.6948114 C2.96477612,21.6948114 2.33731343,20.9350014 2.33731343,19.7604244 C2.33731343,18.5852516 2.96537313,17.8254415 3.93671642,17.8254415 C4.11104478,17.8254415 4.28179104,17.8641769 4.44477612,17.930921 C4.35164179,18.6198155 4.29970149,19.3212244 4.29970149,20.0351479 C4.29970149,20.5696966 4.32716418,21.098286 4.37970149,21.6191284 C4.23641791,21.6685905 4.08716418,21.6948114 3.93671642,21.6948114 L3.93671642,21.6948114 Z M20.0268657,33.9822806 C12.3223881,33.9822806 6.05373134,27.7250214 6.05373134,20.033956 C6.05373134,12.9441834 11.3826866,7.07666214 18.2513433,6.20243365 C18.3665672,6.31506431 18.479403,6.4241194 18.5874627,6.52900299 C19.318209,7.23517938 20.0077612,7.90321628 20.0101493,8.26196581 C20.0107463,8.37698019 19.9337313,8.64812809 19.4059701,9.17552564 C19.0632836,9.51758915 19.0632836,10.0712076 19.4059701,10.4132711 C19.5773134,10.5843028 19.801791,10.6701167 20.0262687,10.6701167 C20.2507463,10.6701167 20.4752239,10.5848988 20.6465672,10.4132711 C21.1301493,9.93056825 21.7713433,9.18148494 21.7641791,8.24825943 C21.758209,7.45090583 21.319403,6.81385726 20.6435821,6.10172157 C28.0632836,6.42531126 34,12.5496782 34,20.033956 C34.000597,27.7250214 27.7319403,33.9822806 20.0268657,33.9822806 L20.0268657,33.9822806 Z M36.2620896,21.6954073 C36.0608955,21.6954073 35.8644776,21.6453493 35.679403,21.5565558 C35.7277612,21.0553791 35.7546269,20.5482431 35.7546269,20.034552 C35.7546269,19.342082 35.7044776,18.6615305 35.6173134,17.9923018 C35.8197015,17.8832467 36.038806,17.8260374 36.2620896,17.8260374 C37.2340299,17.8260374 37.8614925,18.5858475 37.8614925,19.7610204 C37.8614925,20.9361932 37.2334328,21.6954073 36.2620896,21.6954073 L36.2620896,21.6954073 Z" id="Shape" sketch:type="MSShapeGroup"></path>
            </g>
        </g>
    </g>
</svg>