<?xml version="1.0" encoding="UTF-8" standalone="no"?>
<svg width="22px" height="22px" viewBox="0 0 22 22" version="1.1" xmlns="http://www.w3.org/2000/svg" xmlns:xlink="http://www.w3.org/1999/xlink" xmlns:sketch="http://www.bohemiancoding.com/sketch/ns">
    <!-- Generator: Sketch 3.3.2 (12043) - http://www.bohemiancoding.com/sketch -->
    <title>Artboard 10</title>
    <desc>Created with Sketch.</desc>
    <defs></defs>
    <g id="Page-1" stroke="none" stroke-width="1" fill="none" fill-rule="evenodd" sketch:type="MSPage">
        <g id="Artboard-10" sketch:type="MSArtboardGroup" fill="#666A6C">
            <path d="M20.8233333,3.94 C20.4033333,3.52 19.8433333,3.28666667 19.2366667,3.26333333 C19.2133333,2.68 18.98,2.12 18.56,1.67666667 C18.14,1.23333333 17.5566667,1 16.9266667,1 C16.2966667,1 15.7366667,1.23333333 15.2933333,1.67666667 C14.4766667,2.49333333 14.4066667,3.75333333 15.06,4.66333333 L4.16333333,15.5366667 C3.76666667,15.2566667 3.3,15.0933333 2.81,15.0933333 C2.18,15.0933333 1.62,15.3266667 1.17666667,15.77 C0.733333333,16.2366667 0.5,16.82 0.5,17.4266667 C0.5,18.0566667 0.733333333,18.6166667 1.17666667,19.06 C1.59666667,19.48 2.15666667,19.7133333 2.76333333,19.7366667 C2.78666667,20.32 3.02,20.88 3.44,21.3233333 C3.88333333,21.7666667 4.46666667,22 5.07333333,22 C5.70333333,22 6.26333333,21.7666667 6.70666667,21.3233333 C7.15,20.88 7.38333333,20.2966667 7.38333333,19.69 C7.38333333,19.2 7.22,18.7333333 6.94,18.3366667 L17.8133333,7.46333333 C18.21,7.74333333 18.6766667,7.90666667 19.1666667,7.90666667 C19.7966667,7.90666667 20.3566667,7.67333333 20.8,7.23 C21.7333333,6.29666667 21.7333333,4.82666667 20.8233333,3.94 L20.8233333,3.94 Z M20.0066667,6.39 C19.7966667,6.6 19.4933333,6.71666667 19.19,6.71666667 C18.8866667,6.71666667 18.5833333,6.6 18.3733333,6.39 C18.35,6.36666667 18.3033333,6.32 18.28,6.27333333 C18.1866667,6.13333333 18.0233333,6.06333333 17.86,6.06333333 C17.6966667,6.06333333 17.5333333,6.11 17.4166667,6.22666667 L5.72666667,17.9166667 C5.61,18.0333333 5.54,18.1966667 5.56333333,18.36 C5.56333333,18.5233333 5.65666667,18.6866667 5.79666667,18.78 C5.82,18.8033333 5.86666667,18.8266667 5.89,18.8733333 C6.1,19.0833333 6.21666667,19.3866667 6.21666667,19.69 C6.21666667,19.9933333 6.1,20.2966667 5.89,20.5066667 C5.68,20.7166667 5.37666667,20.8333333 5.07333333,20.8333333 C4.77,20.8333333 4.46666667,20.7166667 4.25666667,20.5066667 C3.93,20.18 3.83666667,19.69 4,19.27 C4.09333333,19.06 4.04666667,18.8033333 3.86,18.64 C3.74333333,18.5233333 3.60333333,18.4766667 3.44,18.4766667 C3.37,18.4766667 3.3,18.5 3.23,18.5233333 C2.81,18.6866667 2.32,18.5933333 1.99333333,18.2666667 C1.78333333,18.0333333 1.66666667,17.73 1.66666667,17.4266667 C1.66666667,17.1233333 1.78333333,16.82 1.99333333,16.61 C2.20333333,16.4 2.50666667,16.2833333 2.81,16.2833333 C3.11333333,16.2833333 3.41666667,16.4 3.62666667,16.6333333 C3.65,16.6566667 3.69666667,16.7033333 3.72,16.7266667 C3.81333333,16.8666667 3.97666667,16.9366667 4.14,16.96 C4.30333333,16.96 4.46666667,16.9133333 4.58333333,16.7966667 L16.2733333,5.10666667 C16.39,4.99 16.46,4.82666667 16.4366667,4.66333333 C16.4366667,4.5 16.3433333,4.33666667 16.2266667,4.24333333 C16.18,4.22 16.1566667,4.19666667 16.11,4.15 C15.6666667,3.70666667 15.6666667,2.98333333 16.11,2.51666667 C16.32,2.30666667 16.6233333,2.19 16.9266667,2.19 C17.23,2.19 17.5333333,2.30666667 17.7433333,2.51666667 C18.07,2.84333333 18.1633333,3.33333333 18,3.75333333 C17.9066667,3.96333333 17.9533333,4.22 18.14,4.38333333 C18.3033333,4.54666667 18.56,4.59333333 18.77,4.52333333 C19.19,4.36 19.68,4.45333333 20.0066667,4.78 C20.45,5.2 20.45,5.92333333 20.0066667,6.39 L20.0066667,6.39 Z" id="Shape-Copy" sketch:type="MSShapeGroup"></path>
        </g>
    </g>
</svg>