<?xml version="1.0" encoding="UTF-8" standalone="no"?>
<svg width="24px" height="20px" viewBox="0 0 24 20" version="1.1" xmlns="http://www.w3.org/2000/svg" xmlns:xlink="http://www.w3.org/1999/xlink" xmlns:sketch="http://www.bohemiancoding.com/sketch/ns">
    <!-- Generator: Sketch 3.3.2 (12043) - http://www.bohemiancoding.com/sketch -->
    <title>Artboard 9</title>
    <desc>Created with Sketch.</desc>
    <defs></defs>
    <g id="Page-1" stroke="none" stroke-width="1" fill="none" fill-rule="evenodd" sketch:type="MSPage">
        <g id="Artboard-9" sketch:type="MSArtboardGroup" stroke="#666A6C" stroke-width="0.2" fill="#666A6C">
            <g id="frisbee-copy" sketch:type="MSLayerGroup" transform="translate(0.500000, 0.000000)">
                <path d="M20.7841489,10.8443718 C19.5968511,8.41846154 17.4804043,5.98305128 14.8235532,3.98732051 C14.7460851,3.92910256 14.6681489,3.87185897 14.5904468,3.81485897 C14.5391915,3.77588462 14.4895745,3.73642308 14.4383191,3.69769231 C12.7511064,2.43005128 10.9499149,1.47907692 9.2652766,0.935141026 C7.80134043,0.410692308 6.38561702,0.127884615 5.12014894,0.127884615 C3.21082979,0.127884615 1.76608511,0.755615385 0.942255319,1.94311538 C-0.103680851,3.4509359 -0.00655319149,5.65761538 1.21585106,8.15587179 C2.40244681,10.5817821 4.51912766,13.0169487 7.17574468,15.0134103 C10.3921915,17.4298205 14.019617,18.8728462 16.8791489,18.8728462 C18.7887021,18.8728462 20.2334468,18.2451154 21.0577447,17.0571282 C22.1034468,15.5488205 22.0060851,13.3426282 20.7841489,10.8443718 L20.7841489,10.8443718 Z M6.31797872,1.10248718 C7.1467234,1.10248718 8.06978723,1.26739744 9.03825532,1.577 C10.7427872,2.18597436 12.5226809,3.14084615 14.2026383,4.37048718 C18.3250638,7.53057692 20.6090851,11.8657436 19.1978085,13.9009359 C18.5640213,14.814641 17.3888936,15.0061026 16.5140426,15.0061026 C14.2978936,15.0061026 11.407,13.8276154 8.78034043,11.8545385 C6.67021277,10.2687692 4.97808511,8.3670641 4.01523404,6.49946154 C3.09217021,4.70907692 2.95712766,3.18469231 3.63491489,2.20741026 C4.26846809,1.29419231 5.44359574,1.10248718 6.31797872,1.10248718 L6.31797872,1.10248718 Z M20.5227234,16.6547179 C19.8280851,17.6558718 18.568234,18.1849487 16.879383,18.1849487 C14.1537234,18.1849487 10.6704681,16.7911282 7.56214894,14.4558333 C2.31140426,10.5106538 -0.418234043,5.07738462 1.47704255,2.34430769 C2.03382979,1.54167949 2.95502128,1.04305128 4.16853191,0.876923077 C3.72993617,1.10492308 3.37021277,1.4155 3.09989362,1.80548718 C2.26623404,3.00735897 2.38465957,4.78946154 3.4336383,6.82441026 C4.44282979,8.78165385 6.20446809,10.7659359 8.39417021,12.4113846 C11.1289574,14.4663077 14.1644894,15.6930256 16.5140426,15.6930256 C17.9887447,15.6930256 19.1018511,15.2119359 19.7328298,14.3026154 C20.3549149,13.4052308 20.4333191,12.2077436 20.0539362,10.8792051 C20.1019149,10.9712821 20.1508298,11.0636026 20.196,11.1559231 C21.3002128,13.4132692 21.416766,15.3663718 20.5227234,16.6547179 L20.5227234,16.6547179 Z" id="Shape" sketch:type="MSShapeGroup"></path>
                <path d="M18.3934043,16.3307436 C16.0307447,17.2439615 12.0524894,16.0610897 8.49410638,13.3874487 C8.34642553,13.2763718 8.14023404,13.3109615 8.03351064,13.4649103 C7.92678723,13.6183718 7.96025532,13.8332179 8.10793617,13.9442949 C10.9730851,16.0966538 14.1310213,17.3148462 16.6018085,17.3148462 C17.347234,17.3148462 18.0297021,17.2037692 18.623234,16.9743077 C18.7938511,16.9085385 18.8806809,16.7109872 18.8174894,16.5329231 C18.7542979,16.354859 18.5640213,16.2647308 18.3934043,16.3307436 L18.3934043,16.3307436 Z" id="Shape" sketch:type="MSShapeGroup"></path>
            </g>
        </g>
    </g>
</svg>