<?xml version="1.0" encoding="UTF-8" standalone="no"?>
<svg width="19px" height="33px" viewBox="0 0 19 33" version="1.1" xmlns="http://www.w3.org/2000/svg" xmlns:xlink="http://www.w3.org/1999/xlink" xmlns:sketch="http://www.bohemiancoding.com/sketch/ns">
    <!-- Generator: Sketch 3.3.2 (12043) - http://www.bohemiancoding.com/sketch -->
    <title>Artboard 8</title>
    <desc>Created with Sketch.</desc>
    <defs></defs>
    <g id="Page-1" stroke="none" stroke-width="1" fill="none" fill-rule="evenodd" sketch:type="MSPage">
        <g id="Artboard-8" sketch:type="MSArtboardGroup" stroke="#FFFFFF" stroke-width="0.6" fill="#909597">
            <g id="litning-icon-copy" sketch:type="MSLayerGroup">
                <path d="M6.53182,32.751 C6.41288,32.751 6.29166,32.732625 6.17348,32.693625 C5.65516,32.523375 5.33406,32.011875 5.4093,31.47825 L7.21392,18.682875 L1.50366,18.682875 C1.18142,18.682875 0.87476,18.5475 0.65968,18.310875 C0.4446,18.07425 0.34162,17.7585 0.37658,17.443125 L2.16524,1.246875 C2.22832,0.6795 2.71396,0.249375 3.29232,0.249375 L14.5369,0.249375 C14.9055,0.249375 15.25092,0.426 15.46334,0.723375 C15.67576,1.020375 15.7282,1.401 15.6047,1.74375 L12.3766,10.687125 L13.3399,10.642875 L17.4287,10.402125 C17.8334,10.378875 18.22632,10.57275 18.44824,10.911375 C18.67016,11.25 18.69068,11.6805 18.50106,12.037875 L13.01918,22.37625 L7.524,32.17425 C7.31956,32.538 6.935,32.751 6.53182,32.751 L6.53182,32.751 Z M2.76754,16.444875 L8.51618,16.444875 C8.84412,16.444875 9.1561,16.585125 9.37118,16.82925 C9.58664,17.073375 9.6843,17.397375 9.63908,17.718 L8.49642,25.81875 L11.0219,21.315375 L15.56214,12.75375 L13.46036,12.8775 L10.79466,13.000125 C10.41276,13.01925 10.05594,12.847875 9.8306,12.548625 C9.60564,12.249 9.54674,11.85825 9.67366,11.50725 L12.92912,2.486625 L4.3092,2.486625 L2.76754,16.444875 L2.76754,16.444875 Z" id="Shape" sketch:type="MSShapeGroup"></path>
            </g>
        </g>
    </g>
</svg>