<?xml version="1.0" encoding="UTF-8" standalone="no"?>
<svg width="34px" height="30px" viewBox="0 0 34 30" version="1.1" xmlns="http://www.w3.org/2000/svg" xmlns:xlink="http://www.w3.org/1999/xlink" xmlns:sketch="http://www.bohemiancoding.com/sketch/ns">
    <!-- Generator: Sketch 3.3.2 (12043) - http://www.bohemiancoding.com/sketch -->
    <title>Artboard 6</title>
    <desc>Created with Sketch.</desc>
    <defs></defs>
    <g id="Page-1" stroke="none" stroke-width="1" fill="none" fill-rule="evenodd" sketch:type="MSPage">
        <g id="Artboard-6" sketch:type="MSArtboardGroup" stroke="#FFFFFF" stroke-width="0.5" fill="#909597">
            <g id="mute-icon-copy" sketch:type="MSLayerGroup">
                <path d="M6.66626415,22.3847059 L1.78656604,22.3847059 C0.801207547,22.3847059 0,21.6041176 0,20.6441176 L0,8.83117647 C0,7.87117647 0.801207547,7.09058824 1.78656604,7.09058824 L6.66626415,7.09058824 C7.65162264,7.09058824 8.45283019,7.87117647 8.45283019,8.83117647 L8.45283019,20.6441176 C8.45283019,21.6041176 7.65162264,22.3847059 6.66626415,22.3847059 L6.66626415,22.3847059 Z M2.41509434,20.0317647 L6.03773585,20.0317647 L6.03773585,9.44352941 L2.41509434,9.44352941 L2.41509434,20.0317647 L2.41509434,20.0317647 Z" id="Shape" sketch:type="MSShapeGroup"></path>
                <path d="M16.3230189,29.4129412 C15.922717,29.4129412 15.5272453,29.2794118 15.2,29.0205882 L6.48392453,22.1205882 L8.00603774,20.2947059 L15.6981132,26.3835294 L15.6981132,3.09176471 L8.00664151,9.18 L6.4845283,7.35411765 L15.2012075,0.454705882 C15.7409811,0.0270588235 16.4673208,-0.0576470588 17.0952453,0.233529412 C17.7231698,0.524705882 18.1132075,1.12647059 18.1132075,1.80470588 L18.1132075,27.67 C18.1132075,28.3482353 17.7231698,28.9505882 17.0940377,29.2417647 C16.8464906,29.3564706 16.5838491,29.4129412 16.3230189,29.4129412 L16.3230189,29.4129412 Z" id="Shape" sketch:type="MSShapeGroup"></path>
                <path d="M22.6415094,19.7058824 C22.3323774,19.7058824 22.0238491,19.5911765 21.7877736,19.3611765 C21.3162264,18.9017647 21.3162264,18.1570588 21.7877736,17.6976471 L29.938717,9.75647059 C30.4102642,9.29705882 31.1746415,9.29705882 31.6461887,9.75647059 C32.1177358,10.2158824 32.1177358,10.9605882 31.6461887,11.42 L23.4952453,19.3611765 C23.2591698,19.5911765 22.9506415,19.7058824 22.6415094,19.7058824 L22.6415094,19.7058824 Z" id="Shape" sketch:type="MSShapeGroup"></path>
                <path d="M30.7924528,19.7058824 C30.4833208,19.7058824 30.1747925,19.5911765 29.938717,19.3611765 L21.7877736,11.42 C21.3162264,10.9605882 21.3162264,10.2158824 21.7877736,9.75647059 C22.2593208,9.29705882 23.0236981,9.29705882 23.4952453,9.75647059 L31.6461887,17.6976471 C32.1177358,18.1570588 32.1177358,18.9017647 31.6461887,19.3611765 C31.4101132,19.5911765 31.1015849,19.7058824 30.7924528,19.7058824 L30.7924528,19.7058824 Z" id="Shape" sketch:type="MSShapeGroup"></path>
            </g>
        </g>
    </g>
</svg>