<?xml version="1.0" encoding="UTF-8" standalone="no"?>
<svg width="26px" height="20px" viewBox="0 0 26 20" version="1.1" xmlns="http://www.w3.org/2000/svg" xmlns:xlink="http://www.w3.org/1999/xlink" xmlns:sketch="http://www.bohemiancoding.com/sketch/ns">
    <!-- Generator: Sketch 3.3.2 (12043) - http://www.bohemiancoding.com/sketch -->
    <title>Artboard 11</title>
    <desc>Created with Sketch.</desc>
    <defs></defs>
    <g id="Page-1" stroke="none" stroke-width="1" fill="none" fill-rule="evenodd" sketch:type="MSPage">
        <g id="Artboard-11" sketch:type="MSArtboardGroup" stroke="#666A6C" stroke-width="0.4" fill="#666A6C">
            <path d="M0.5,11.173913 C2.0625,11.173913 2.0625,11.9565217 3.625,11.9565217 C5.1875,11.9565217 5.1875,11.173913 6.75,11.173913 C7.996875,11.173913 8.24869792,11.6721739 9.09375,11.8738261 L9.09375,9.60869565 L9.09375,8.82608696 L9.09375,6.47826087 L9.09375,5.69565217 L9.09375,4.13043478 C9.09375,2.40165217 10.4927083,1 12.21875,1 C13.9445312,1 15.34375,2.40165217 15.34375,4.13043478 C15.34375,4.34669565 15.16875,4.52173913 14.953125,4.52173913 C14.7375,4.52173913 14.5625,4.34669565 14.5625,4.13043478 C14.5625,2.83391304 13.5130208,1.7826087 12.21875,1.7826087 C10.9242187,1.7826087 9.875,2.83391304 9.875,4.13043478 L9.875,5.69565217 L17.6875,5.69565217 L17.6875,4.13043478 C17.6875,2.40165217 19.0864583,1 20.8125,1 C22.5382813,1 23.9375,2.40165217 23.9375,4.13043478 C23.9375,4.34669565 23.7625,4.52173913 23.546875,4.52173913 C23.33125,4.52173913 23.15625,4.34669565 23.15625,4.13043478 C23.15625,2.83391304 22.1070312,1.7826087 20.8125,1.7826087 C19.5182292,1.7826087 18.46875,2.83391304 18.46875,4.13043478 L18.46875,11.2568696 C18.6825521,11.206 18.934375,11.173913 19.25,11.173913 C20.8125,11.173913 20.8125,11.9565217 22.375,11.9565217 C23.9375,11.9565217 23.9375,11.173913 25.5,11.173913 L25.5,11.9565217 C23.9375,11.9565217 23.9375,12.7391304 22.375,12.7391304 C20.8125,12.7391304 20.8125,11.9565217 19.25,11.9565217 C17.6875,11.9565217 17.6875,12.7391304 16.125,12.7391304 C14.5625,12.7391304 14.5625,11.9565217 13,11.9565217 C11.4375,11.9565217 11.4375,12.7391304 9.875,12.7391304 C8.3125,12.7391304 8.3125,11.9565217 6.75,11.9565217 C5.1875,11.9565217 5.1875,12.7391304 3.625,12.7391304 C2.0625,12.7391304 2.0625,11.9565217 0.5,11.9565217 L0.5,11.173913 L0.5,11.173913 Z M0.5,14.3046087 C2.0625,14.3043478 2.0625,15.0869565 3.625,15.0869565 C5.1875,15.0869565 5.1875,14.3043478 6.75,14.3043478 C8.3125,14.3043478 8.3125,15.0869565 9.875,15.0869565 C11.4375,15.0869565 11.4375,14.3043478 13,14.3043478 C14.5625,14.3043478 14.5625,15.0869565 16.125,15.0869565 C17.6875,15.0869565 17.6875,14.3043478 19.25,14.3043478 C20.8125,14.3043478 20.8125,15.0869565 22.375,15.0869565 C23.9375,15.0869565 23.9375,14.3043478 25.5,14.3043478 L25.5,15.0869565 C23.9375,15.0869565 23.9375,15.8698261 22.375,15.8698261 C20.8125,15.8698261 20.8125,15.0869565 19.25,15.0869565 C17.6875,15.0869565 17.6875,15.8698261 16.125,15.8698261 C14.5625,15.8698261 14.5625,15.0869565 13,15.0869565 C11.4375,15.0869565 11.4375,15.8698261 9.875,15.8698261 C8.3125,15.8698261 8.3125,15.0869565 6.75,15.0869565 C5.1875,15.0869565 5.1875,15.8698261 3.625,15.8698261 C2.0625,15.8698261 2.0625,15.0869565 0.5,15.0869565 L0.5,14.3046087 L0.5,14.3046087 Z M9.875,11.9565217 C11.4375,11.9565217 11.4375,11.173913 13,11.173913 C14.5625,11.173913 14.5625,11.9565217 16.125,11.9565217 C16.90625,11.9565217 17.296875,11.7608696 17.6875,11.5652174 L17.6875,9.60869565 L9.875,9.60869565 L9.875,11.9565217 L9.875,11.9565217 Z M9.875,8.82608696 L17.6875,8.82608696 L17.6875,6.47826087 L9.875,6.47826087 L9.875,8.82608696 L9.875,8.82608696 Z M0.5,17.4350435 C2.0625,17.4347826 2.0625,18.2176522 3.625,18.2176522 C5.1875,18.2176522 5.1875,17.4347826 6.75,17.4347826 C8.3125,17.4347826 8.3125,18.2176522 9.875,18.2176522 C11.4375,18.2176522 11.4375,17.4347826 13,17.4347826 C14.5625,17.4347826 14.5625,18.2176522 16.125,18.2176522 C17.6875,18.2176522 17.6875,17.4347826 19.25,17.4347826 C20.8125,17.4347826 20.8125,18.2176522 22.375,18.2176522 C23.9375,18.2176522 23.9375,17.4347826 25.5,17.4347826 L25.5,18.2176522 C23.9375,18.2176522 23.9375,19 22.375,19 C20.8125,19 20.8125,18.2176522 19.25,18.2176522 C17.6875,18.2176522 17.6875,19 16.125,19 C14.5625,19 14.5625,18.2176522 13,18.2176522 C11.4375,18.2176522 11.4375,19 9.875,19 C8.3125,19 8.3125,18.2176522 6.75,18.2176522 C5.1875,18.2176522 5.1875,19 3.625,19 C2.0625,19 2.0625,18.2176522 0.5,18.2176522 L0.5,17.4350435 L0.5,17.4350435 Z" id="swim-icon-copy" sketch:type="MSShapeGroup"></path>
        </g>
    </g>
</svg>